<?xml version="1.0" standalone="no"?>
<!DOCTYPE svg PUBLIC "-//W3C//DTD SVG 20010904//EN"
 "http://www.w3.org/TR/2001/REC-SVG-20010904/DTD/svg10.dtd">
<svg version="1.0" xmlns="http://www.w3.org/2000/svg"
 width="524.000000pt" height="524.000000pt" viewBox="0 0 524.000000 524.000000"
 preserveAspectRatio="xMidYMid meet">
<metadata>
Created by potrace 1.14, written by Peter Selinger 2001-2017
</metadata>
<g transform="translate(0.000000,524.000000) scale(0.100000,-0.100000)"
fill="#000000" stroke="none">
<path d="M0 3740 c0 -1056 3 -1500 11 -1500 6 0 8 9 4 23 -4 15 -4 18 3 8 5
-7 15 -11 21 -7 7 5 9 1 5 -8 -3 -9 -1 -16 5 -16 6 0 11 4 11 9 0 5 9 11 21
14 16 4 18 3 8 -9 -16 -19 0 -18 22 2 16 15 17 14 12 -8 -6 -21 -5 -22 12 -8
14 11 19 12 22 3 3 -7 12 -13 21 -13 15 0 15 2 2 10 -12 7 -10 9 7 7 12 0 19
-5 17 -9 -3 -4 4 -8 16 -8 12 0 18 4 15 10 -11 17 19 6 32 -12 9 -11 24 -15
50 -13 21 1 41 -2 45 -8 4 -6 10 -8 15 -4 4 5 1 12 -7 17 -8 5 -11 12 -7 17 5
4 12 1 18 -7 7 -12 11 -12 17 -2 6 9 14 6 32 -13 23 -24 47 -35 35 -15 -3 6 1
10 10 10 9 0 13 -5 10 -10 -3 -5 -1 -10 4 -10 6 0 11 5 11 10 0 6 5 10 11 10
5 0 7 -4 4 -10 -4 -6 12 -10 40 -10 25 0 44 4 41 8 -3 5 1 9 9 9 8 0 12 -4 9
-9 -8 -13 10 -10 25 4 8 7 11 9 8 3 -3 -6 30 -11 90 -13 53 -1 92 2 89 7 -8
13 19 32 37 25 8 -3 18 0 22 6 6 9 10 9 17 -1 8 -11 10 -12 15 -1 4 10 9 9 24
-4 10 -9 16 -21 13 -26 -4 -6 4 -4 17 2 l24 13 -20 -23 c-11 -13 -14 -20 -5
-14 21 13 70 14 70 1 0 -6 2 -8 5 -5 3 3 -8 35 -25 72 -16 38 -30 73 -30 79 1
7 12 -13 25 -43 30 -70 101 -194 120 -210 21 -17 19 -7 -10 50 -18 36 -26 71
-30 127 l-4 78 9 -70 c14 -96 14 -96 51 -88 19 4 30 2 26 -3 -3 -6 9 -10 26
-11 30 -1 30 -1 7 7 -21 7 -22 8 -5 9 12 1 26 -4 32 -10 20 -20 32 -1 22 34
-5 17 -9 39 -8 47 0 8 7 -7 15 -35 21 -71 74 -238 80 -251 2 -6 -53 4 -123 22
-71 19 -131 34 -134 34 -4 0 -25 29 -48 65 -22 36 -44 65 -49 65 -5 0 -17 -9
-26 -19 -17 -18 -17 -22 -2 -43 9 -12 16 -26 16 -31 0 -9 -59 1 -75 13 -5 4
-17 7 -26 7 -8 0 -92 19 -185 42 l-170 42 -210 -81 c-115 -45 -233 -91 -262
-102 -29 -11 -51 -22 -48 -25 2 -3 53 14 113 37 97 38 111 41 138 30 16 -7 40
-12 52 -11 12 0 35 -4 50 -10 l28 -11 -25 -14 c-14 -9 -16 -12 -5 -7 32 12
118 9 123 -5 2 -6 17 -12 33 -12 34 0 200 -39 212 -50 9 -8 -212 -100 -238
-100 -9 0 -29 -10 -46 -22 -19 -14 -44 -23 -69 -23 -21 0 -37 -1 -34 -4 8 -8
-34 -30 -136 -71 -57 -23 -108 -39 -115 -36 -6 2 -21 30 -33 61 -21 55 -21 58
-5 71 17 13 17 14 -1 7 -13 -4 -23 0 -32 12 -20 27 -17 0 5 -43 33 -67 70
-190 81 -276 15 -108 9 -138 -13 -66 -9 30 -32 87 -51 125 -30 61 -35 66 -33
38 1 -18 5 -33 9 -33 7 0 38 -52 38 -65 0 -3 -11 -3 -25 1 -14 3 -25 2 -25 -4
0 -12 29 -24 41 -17 5 4 6 -1 3 -8 -3 -8 -14 -17 -25 -20 -10 -3 -19 -10 -19
-16 0 -7 8 -7 27 0 33 12 53 5 53 -19 0 -13 -12 -23 -40 -32 -22 -7 -40 -17
-40 -22 0 -12 17 -10 49 7 35 18 41 12 41 -36 0 -46 -9 -53 -55 -40 -31 8 -35
7 -35 -10 0 -10 4 -19 9 -19 5 0 21 -4 35 -10 32 -12 25 -35 -15 -56 -16 -8
-29 -21 -29 -28 0 -11 21 -5 78 19 l79 34 107 -29 c102 -27 125 -36 115 -43
-7 -5 -223 -94 -245 -101 -11 -3 -40 1 -64 9 -53 19 -70 19 -70 1 0 -8 15 -17
35 -20 19 -4 35 -11 35 -16 0 -17 74 -11 100 7 41 29 243 113 270 112 14 0 34
-4 45 -8 17 -7 11 -13 -40 -36 -97 -43 -198 -83 -227 -89 -33 -7 -37 -26 -6
-26 29 0 248 -62 248 -70 0 -11 -49 -30 -76 -30 -27 0 -216 51 -224 60 -13 16
-44 18 -80 6 -31 -11 -43 -11 -56 -1 -16 11 -15 12 2 19 16 6 16 9 4 16 -24
16 -32 11 -28 -16 2 -21 15 -30 76 -56 45 -19 93 -48 124 -77 43 -39 51 -53
55 -91 4 -37 0 -52 -22 -84 -26 -38 -30 -61 -5 -31 15 18 46 20 56 4 9 -15 89
-6 107 13 14 14 226 108 281 124 37 11 36 28 -1 32 -41 5 -217 53 -226 62 -5
4 10 15 33 24 39 16 44 15 133 -10 51 -15 104 -33 119 -40 38 -19 71 -17 100
6 32 25 207 102 221 97 6 -2 -25 -18 -68 -36 -44 -18 -90 -39 -102 -47 -24
-15 -27 -48 -6 -79 19 -29 16 -44 -12 -51 -14 -3 -25 -10 -25 -15 0 -4 -21
-18 -48 -29 -64 -29 -200 -86 -239 -100 -35 -13 -35 -30 0 -30 12 1 65 -12
118 -27 86 -24 96 -30 97 -50 0 -13 -8 -25 -19 -28 -20 -7 -216 47 -265 72
-23 12 -38 13 -59 6 -38 -12 -44 -33 -10 -33 27 0 227 -55 253 -69 9 -5 0 -13
-27 -26 l-41 -18 -117 33 c-65 19 -124 40 -131 47 -7 7 -16 13 -20 13 -19 0
-82 -22 -82 -28 0 -4 -56 -32 -125 -62 -122 -54 -125 -56 -125 -87 0 -32 0
-32 103 -64 l102 -32 -102 -48 c-80 -37 -103 -52 -103 -68 0 -18 13 -14 128
40 l127 61 110 -32 c61 -17 117 -36 125 -40 11 -6 -5 -18 -60 -43 -68 -32 -72
-35 -42 -36 18 -1 62 13 99 29 73 33 80 35 120 19 l28 -11 -35 -19 -35 -20 45
6 c53 7 85 7 205 1 l90 -5 -80 26 -80 26 62 30 c56 28 62 29 77 14 9 -9 54
-30 101 -48 46 -18 82 -36 79 -41 -9 -14 212 -10 224 5 16 18 97 20 112 2 9
-11 36 -15 110 -15 85 0 97 2 97 18 0 9 -4 20 -9 23 -5 3 -15 24 -23 45 -13
38 -14 39 -58 36 -26 -2 -48 1 -52 8 -4 6 -18 15 -31 20 -15 6 -24 18 -24 30
0 11 -7 32 -16 45 -11 16 -14 34 -9 55 6 29 5 30 -17 25 -20 -5 -30 1 -54 32
-28 37 -46 64 -60 92 -4 8 0 19 10 27 31 22 286 101 440 136 l149 33 95 102
c52 57 100 103 106 102 6 0 38 -30 71 -67 33 -37 94 -97 137 -134 l76 -67 111
54 c143 70 283 154 275 166 -3 5 17 9 43 9 46 0 73 9 191 67 17 9 32 20 32 25
0 11 -7 10 -31 -2 -15 -8 -19 -7 -19 4 0 9 -11 4 -32 -16 -53 -49 -86 -62
-168 -62 -60 -1 -85 4 -123 23 -26 13 -46 28 -45 33 2 6 26 19 52 30 110 43
175 109 184 185 5 43 3 47 -38 82 -46 40 -47 61 -4 61 46 0 116 -53 153 -115
11 -18 12 -17 6 10 -3 17 -22 46 -43 65 -37 35 -47 80 -17 80 7 0 15 7 19 15
8 22 33 19 81 -10 32 -18 47 -37 65 -77 12 -29 33 -76 47 -104 l25 -51 -36
-78 -36 -77 42 -49 c23 -27 45 -49 50 -49 17 0 6 -25 -47 -105 -30 -45 -55
-89 -55 -97 0 -8 16 -36 35 -61 19 -25 35 -51 35 -58 0 -7 -18 -45 -40 -85
-22 -40 -40 -76 -40 -79 0 -4 14 -4 30 0 25 5 39 0 79 -29 41 -30 49 -43 55
-77 6 -35 3 -48 -20 -81 -15 -21 -25 -41 -22 -43 3 -3 24 2 48 10 58 21 59 20
49 -22 -12 -53 -12 -53 22 -53 22 0 28 4 22 13 -7 11 -5 58 3 66 11 11 54 -32
54 -54 0 -25 1 -25 85 -25 47 0 85 4 85 8 0 4 14 16 31 26 17 10 65 46 106 81
l77 64 28 -17 c62 -36 63 -45 16 -95 -24 -25 -54 -50 -68 -55 -17 -7 66 -10
247 -11 256 -1 274 0 305 19 35 21 74 26 97 11 11 -7 10 -11 -5 -20 -16 -9
-12 -10 24 -11 23 0 42 4 42 9 0 24 -21 61 -35 61 -33 0 -11 18 95 79 88 50
117 62 138 57 20 -5 23 -4 12 4 -10 6 -11 10 -2 10 6 0 12 7 12 15 0 8 5 15
11 15 5 0 8 4 5 8 -2 4 9 9 26 10 35 3 68 18 68 32 0 10 -19 14 -50 12 -8 0
-68 15 -132 35 -95 29 -116 39 -107 50 6 7 23 13 37 13 33 0 245 -50 252 -60
16 -22 94 -15 110 10 8 12 200 120 226 126 13 3 28 12 35 20 9 11 8 14 -7 15
-45 2 -75 8 -176 34 -60 15 -108 31 -108 35 0 4 9 15 20 25 19 18 24 17 137
-13 64 -17 119 -30 121 -28 11 12 -38 36 -107 52 -45 10 -81 22 -81 25 0 12
81 50 98 45 12 -4 20 1 27 17 7 16 17 21 35 19 126 -13 231 19 155 48 -14 5
-25 16 -25 23 0 8 11 19 25 25 l25 12 0 2200 0 2200 -2620 0 -2620 0 0 -1500z
m2490 750 c10 -10 29 -40 42 -67 l25 -49 -156 4 c-128 4 -158 7 -169 21 -11
14 -12 13 -2 -6 8 -18 8 -23 -2 -23 -40 -1 -160 -23 -222 -41 -130 -38 -264
-105 -338 -170 l-58 -50 0 28 c0 15 3 45 7 66 5 32 11 39 34 44 21 4 31 14 39
38 11 33 51 62 80 57 10 -2 21 8 28 23 13 27 58 35 79 14 9 -9 20 -3 46 25 36
38 44 41 66 27 9 -6 23 -4 38 6 17 11 35 13 68 9 41 -7 45 -5 45 14 0 18 4 20
35 14 26 -5 40 -1 61 15 34 26 84 27 117 1 27 -21 47 -26 47 -11 0 5 7 17 16
26 18 18 47 12 74 -15z m1318 -84 c27 -14 79 -64 71 -68 -2 -2 -30 -16 -62
-32 -86 -43 -165 -141 -201 -248 -7 -22 -36 -13 -36 11 0 73 70 236 129 304
46 51 57 55 99 33z m-2453 -91 c-14 -35 -36 -92 -49 -125 -17 -42 -25 -80 -25
-124 0 -83 -14 -135 -60 -221 -45 -83 -105 -235 -96 -243 3 -4 9 -2 13 4 4 6
16 10 27 11 11 0 29 3 40 7 18 7 18 6 2 -4 -9 -6 -15 -16 -11 -21 4 -7 10 -7
18 0 14 12 148 10 157 -2 3 -4 17 -5 31 -2 19 5 31 19 43 51 9 25 19 43 22 41
9 -10 -78 -203 -132 -293 -87 -147 -311 -370 -442 -441 l-58 -32 75 152 c80
162 150 356 201 552 16 66 45 179 64 251 19 73 55 185 81 250 46 117 110 254
119 254 2 0 -7 -29 -20 -65z m1679 -290 c5 -45 4 -91 -3 -131 -6 -34 -11 -98
-11 -143 l0 -81 53 0 52 0 -48 -27 c-50 -28 -54 -39 -36 -103 3 -10 -8 -16
-39 -20 -23 -4 -44 -4 -47 -2 -3 3 -5 61 -5 130 0 114 -3 135 -36 244 -19 65
-34 133 -32 151 3 29 8 33 48 44 25 6 56 11 70 10 23 -2 26 -7 34 -72z m523
10 c8 -22 -6 -33 -17 -15 -13 20 -12 30 0 30 6 0 13 -7 17 -15z m53 -15 c0 -5
-7 -10 -15 -10 -8 0 -15 5 -15 10 0 6 7 10 15 10 8 0 15 -4 15 -10z m80 -11
c0 -5 -4 -9 -10 -9 -5 0 -10 7 -10 16 0 8 5 12 10 9 6 -3 10 -10 10 -16z
m-190 -4 c-7 -9 -15 -13 -17 -11 -7 7 7 26 19 26 6 0 6 -6 -2 -15z m-2188
-160 c-20 -67 -31 -90 -49 -98 -13 -6 -26 -7 -30 -4 -8 8 28 156 51 212 l17
39 19 -31 c19 -31 18 -32 -8 -118z m2419 132 c-1 -12 -15 -9 -19 4 -3 6 1 10
8 8 6 -3 11 -8 11 -12z m-1045 -26 l92 -22 27 -60 c29 -65 28 -77 -4 -59 -15
7 -27 8 -40 0 -29 -15 -81 -12 -87 5 -5 11 -22 15 -63 15 -32 0 -61 3 -65 7
-4 4 -26 6 -51 4 -24 -1 -53 3 -65 9 -18 10 -25 8 -41 -8 -20 -22 -81 -40 -86
-25 -5 15 -131 7 -151 -9 -9 -9 -28 -21 -41 -28 -22 -11 -27 -10 -43 10 l-18
22 -9 -25 c-10 -26 -73 -57 -116 -57 -13 0 -41 -12 -62 -26 -28 -19 -46 -24
-70 -20 -24 3 -33 1 -33 -9 0 -7 -14 -25 -32 -40 -24 -20 -39 -26 -62 -22 -26
4 -37 -2 -74 -40 -35 -37 -48 -44 -69 -40 -18 3 -36 -2 -55 -16 -78 -58 -19
73 67 148 169 149 443 272 674 305 115 16 374 5 477 -19z m784 -6 c-7 -9 -15
-13 -18 -10 -3 2 1 11 8 20 7 9 15 13 18 10 3 -2 -1 -11 -8 -20z m292 -17 c-9
-9 -12 -7 -12 12 0 19 3 21 12 12 9 -9 9 -15 0 -24z m-64 -3 c35 -29 45 -67
26 -94 -18 -25 -47 -17 -90 26 -35 35 -42 61 -22 81 19 19 54 14 86 -13z
m-2307 -12 c8 -9 33 -25 57 -35 36 -16 42 -23 36 -41 -18 -61 -28 -72 -76 -78
-25 -4 -56 -10 -68 -14 -22 -7 -22 -5 -16 39 10 65 35 146 45 146 5 0 15 -7
22 -17z m2078 -34 c-16 -10 -23 -4 -14 10 3 6 11 8 17 5 6 -4 5 -9 -3 -15z
m343 -11 c-9 -9 -12 -7 -12 12 0 19 3 21 12 12 9 -9 9 -15 0 -24z m28 -49 c0
-5 -4 -9 -10 -9 -5 0 -10 7 -10 16 0 8 5 12 10 9 6 -3 10 -10 10 -16z m-372
-1 c-2 -6 -10 -14 -16 -16 -7 -2 -10 2 -6 12 7 18 28 22 22 4z m382 -38 c0 -5
-7 -7 -15 -4 -8 4 -15 8 -15 10 0 2 7 4 15 4 8 0 15 -4 15 -10z m-367 -40 c-3
-11 -7 -20 -9 -20 -2 0 -4 9 -4 20 0 11 4 20 9 20 5 0 7 -9 4 -20z m165 1 c3
-8 -1 -12 -9 -9 -7 2 -15 10 -17 17 -3 8 1 12 9 9 7 -2 15 -10 17 -17z m-979
-52 c11 -36 10 -44 -3 -57 -14 -14 -17 -11 -35 29 -24 51 -26 75 -8 82 19 7
33 -9 46 -54z m-719 27 c0 -2 -8 -10 -17 -17 -16 -13 -17 -12 -4 4 13 16 21
21 21 13z m81 -92 c3 -43 6 -74 7 -69 2 6 9 1 17 -9 19 -25 19 -19 0 34 -8 23
-15 60 -15 81 l0 39 55 0 c69 0 80 -17 71 -102 -5 -40 -4 -58 3 -54 6 4 20 1
31 -6 17 -11 22 -11 30 2 9 13 11 13 20 0 6 -10 10 -11 10 -2 0 6 10 12 23 12
14 0 18 -3 10 -8 -7 -5 10 -8 39 -8 28 0 46 2 40 4 -7 2 -12 8 -12 14 0 5 9 6
20 3 11 -4 20 -2 20 4 0 6 5 11 12 11 6 0 9 -3 5 -6 -7 -8 17 -34 32 -34 5 0
14 7 19 15 6 11 14 -3 32 -52 37 -109 51 -113 25 -8 -18 75 -18 72 0 72 8 0
15 -4 15 -8 0 -11 28 -19 46 -12 11 4 13 14 9 37 -4 22 1 17 16 -19 25 -60 75
-252 85 -324 l7 -51 -65 0 c-77 0 -128 -9 -128 -22 0 -5 37 -6 93 -2 l94 7 6
-84 c6 -77 -6 -291 -19 -331 -3 -9 -20 -22 -39 -28 -42 -14 -65 -38 -46 -49 7
-5 12 -11 12 -15 -3 -22 1 -26 24 -20 21 5 25 3 24 -17 0 -13 -4 -33 -8 -44
-7 -18 -10 -16 -30 20 -12 22 -40 69 -63 105 -22 36 -63 107 -90 158 -47 87
-66 113 -54 75 3 -10 12 -62 20 -116 13 -89 13 -103 -2 -150 -15 -47 -16 -49
-19 -22 -7 62 -35 175 -45 181 -8 5 -9 -1 -4 -17 25 -88 23 -88 -58 -9 -42 41
-102 110 -133 154 -65 90 -153 258 -153 292 0 13 -4 26 -10 29 -5 3 -10 -2
-10 -12 0 -22 45 -208 59 -246 6 -15 20 -69 30 -120 11 -51 29 -119 40 -151
12 -33 20 -60 19 -62 -2 -1 -40 29 -85 68 -111 94 -183 205 -223 341 l-9 27
67 0 c88 0 114 16 41 24 -30 4 -67 5 -83 4 -25 -3 -30 2 -38 27 -22 73 22 364
67 442 16 27 16 24 1 -24 -5 -16 -3 -23 6 -23 10 0 9 -3 -2 -10 -12 -8 -11
-10 6 -10 25 0 34 17 34 62 0 59 8 23 19 -87 28 -272 55 -309 46 -64 -3 95 -3
190 0 211 11 64 29 39 36 -48z m398 50 c21 -27 29 -84 11 -84 -5 0 -19 18 -30
40 -34 66 -21 95 19 44z m-79 -8 c5 -14 10 -37 12 -52 3 -25 -1 -28 -47 -40
-27 -8 -57 -14 -67 -14 -19 0 -38 48 -38 96 l0 34 65 0 c60 0 66 -2 75 -24z
m-1170 -36 c0 -5 -4 -10 -9 -10 -6 0 -13 5 -16 10 -3 6 1 10 9 10 9 0 16 -4
16 -10z m1408 -15 c-3 -3 -9 2 -12 12 -6 14 -5 15 5 6 7 -7 10 -15 7 -18z
m-1241 9 c-3 -3 -12 -4 -19 -1 -8 3 -5 6 6 6 11 1 17 -2 13 -5z m1303 -54 c0
-13 -1 -13 -10 0 -5 8 -10 22 -10 30 0 13 1 13 10 0 5 -8 10 -22 10 -30z m993
18 c15 -5 27 -14 27 -20 0 -13 -40 1 -70 25 -20 16 -21 18 -5 13 11 -5 32 -13
48 -18z m-1136 -10 c-3 -8 -6 -5 -6 6 -1 11 2 17 5 13 3 -3 4 -12 1 -19z m374
-5 c13 -16 12 -17 -3 -4 -10 7 -18 15 -18 17 0 8 8 3 21 -13z m-1255 -68 c-18
-64 -22 -72 -30 -52 -6 12 -11 24 -12 25 -2 2 -19 -1 -39 -8 -33 -11 -36 -15
-30 -40 l6 -29 -41 16 -41 16 27 28 c14 15 39 30 56 33 17 3 44 21 62 40 17
18 38 36 46 39 8 3 15 6 16 6 0 1 -9 -33 -20 -74z m590 38 c-11 -11 -19 6 -11
24 8 17 8 17 12 0 3 -10 2 -21 -1 -24z m-482 -100 l7 -123 -53 21 c-29 11 -57
24 -61 28 -4 4 2 30 13 57 21 48 80 148 85 142 1 -2 5 -58 9 -125z m606 107
c0 -5 -4 -10 -10 -10 -5 0 -10 5 -10 10 0 6 5 10 10 10 6 0 10 -4 10 -10z
m120 0 c0 -5 -4 -10 -10 -10 -5 0 -10 5 -10 10 0 6 5 10 10 10 6 0 10 -4 10
-10z m125 0 c-3 -5 -10 -10 -16 -10 -5 0 -9 5 -9 10 0 6 7 10 16 10 8 0 12 -4
9 -10z m108 -22 c18 3 35 10 39 16 5 8 8 7 8 -2 0 -7 6 -12 13 -11 24 3 38 -1
32 -10 -3 -5 -1 -12 5 -16 5 -3 10 2 10 11 0 14 3 15 12 6 8 -8 8 -15 -2 -29
-12 -15 -12 -16 0 -5 16 14 34 16 26 4 -3 -5 1 -9 9 -9 17 0 19 9 6 22 -6 7 2
10 24 10 38 0 44 -13 66 -140 13 -79 7 -332 -11 -430 -12 -60 -62 -173 -84
-187 -27 -18 -33 -5 -40 85 -6 86 -30 253 -42 304 -5 20 -2 23 22 24 l29 1
-29 7 c-27 6 -31 13 -52 91 -13 47 -37 125 -53 174 -17 50 -30 95 -30 100 1 6
3 4 6 -5 3 -11 12 -14 36 -11z m1088 -135 c-12 -20 -14 -14 -5 12 4 9 9 14 11
11 3 -2 0 -13 -6 -23z m-2366 -12 c-5 -15 6 -23 65 -47 69 -28 71 -30 85 -78
8 -27 15 -53 15 -58 0 -4 -43 -8 -95 -8 -103 0 -104 -1 -89 -57 6 -22 12 -23
94 -23 l88 0 6 -102 c3 -57 8 -161 10 -233 9 -226 49 -398 117 -497 22 -32 35
-58 29 -58 -5 0 -40 12 -76 26 -79 32 -169 111 -226 198 -47 74 -49 58 -3 -41
19 -42 34 -78 32 -80 -2 -2 -25 19 -50 46 -51 54 -113 171 -154 288 -24 71
-27 92 -27 223 -1 208 32 328 124 453 51 68 66 82 55 48z m2406 2 c13 -16 12
-17 -3 -4 -17 13 -22 21 -14 21 2 0 10 -8 17 -17z m-2 -63 c5 0 17 -8 26 -17
16 -16 17 -15 13 3 -2 10 -9 18 -14 17 -5 -1 -10 7 -10 18 0 47 36 -24 96
-191 34 -96 75 -199 91 -227 16 -29 29 -65 29 -80 0 -29 -47 -106 -60 -98 -4
3 -24 58 -45 122 -48 154 -57 173 -49 103 8 -77 33 -176 60 -237 71 -162 223
-370 310 -424 19 -12 33 -24 30 -26 -10 -11 -144 20 -213 48 -60 25 -84 43
-152 114 -65 68 -89 102 -131 189 -29 58 -49 110 -45 116 4 6 24 18 46 27 36
14 39 18 39 53 0 52 -44 284 -74 393 -20 70 -23 93 -14 118 l10 30 24 -26 c12
-14 27 -25 33 -25z m1032 7 c-10 -9 -11 -8 -5 6 3 10 9 15 12 12 3 -3 0 -11
-7 -18z m179 -27 c0 -5 -5 -10 -11 -10 -5 0 -7 5 -4 10 3 6 8 10 11 10 2 0 4
-4 4 -10z m-500 -60 c0 -31 -3 -38 -15 -34 -17 7 -20 30 -5 39 8 5 7 11 -1 21
-9 11 -8 14 5 14 12 0 16 -10 16 -40z m-2826 14 c32 -8 24 -54 -10 -54 -26 0
-28 3 -38 44 -6 24 -4 27 9 22 9 -3 27 -9 39 -12z m85 -50 c11 -47 11 -58 0
-65 -11 -7 -11 -9 2 -9 10 0 26 -28 47 -82 35 -93 91 -191 140 -249 20 -23 28
-39 20 -40 -9 0 -9 -2 2 -6 8 -3 47 -33 85 -66 91 -79 183 -138 283 -182 91
-40 113 -45 63 -14 -108 65 -186 159 -264 314 -41 82 -92 223 -84 231 2 2 29
-31 60 -74 60 -83 122 -150 205 -223 54 -48 58 -59 53 -154 0 -11 11 3 25 32
l25 52 62 -39 c34 -21 78 -52 97 -68 33 -28 37 -29 47 -14 10 15 12 13 18 -13
6 -28 9 -30 46 -27 77 8 89 -42 13 -54 -40 -6 -44 -9 -38 -28 12 -38 32 -71
59 -96 23 -22 36 -25 100 -25 82 0 111 14 153 75 32 47 45 103 46 197 1 78 2
83 22 83 12 0 24 7 28 15 3 8 10 15 16 15 31 0 -14 -234 -65 -338 -45 -91
-135 -188 -212 -230 l-58 -31 47 -1 c41 0 157 20 213 36 37 12 -20 -40 -90
-81 -36 -21 -65 -39 -65 -41 0 -6 93 7 125 17 58 18 10 -11 -84 -52 -218 -94
-448 -132 -659 -110 -240 24 -475 85 -583 150 -89 54 -101 74 -109 173 -4 46
-6 84 -4 86 1 2 19 -5 41 -16 47 -24 125 -48 178 -56 l40 -7 -33 17 c-73 37
-128 141 -165 315 -22 107 -19 129 16 129 22 0 25 -5 31 -61 10 -83 13 -89 50
-89 42 0 76 -24 59 -41 -6 -6 -26 -12 -42 -13 -36 -1 -37 -5 -11 -55 22 -44
70 -88 106 -97 33 -9 91 1 120 21 46 30 59 70 61 197 1 64 6 126 13 137 6 12
8 26 5 31 -10 16 -107 40 -188 47 -63 5 -81 10 -93 27 -12 16 -15 17 -12 4 2
-9 -1 -17 -7 -17 -6 -1 -11 70 -13 189 -2 165 0 190 13 190 11 0 15 10 15 35
0 19 -4 35 -10 35 -13 0 -13 26 0 51 17 31 26 22 39 -37z m2685 20 c4 -10 1
-14 -6 -12 -15 5 -23 28 -10 28 5 0 13 -7 16 -16z m-1747 -36 c-3 -8 -6 -5 -6
6 -1 11 2 17 5 13 3 -3 4 -12 1 -19z m494 -45 c26 -10 70 -40 99 -67 l53 -49
-23 -100 c-21 -97 -21 -101 -4 -114 10 -7 23 -13 29 -13 7 0 9 -14 7 -35 l-4
-35 84 3 c64 2 90 7 113 23 46 31 72 21 79 -30 14 -90 -23 -283 -68 -361 -30
-50 -124 -155 -168 -186 l-29 -21 25 37 c35 51 65 135 72 203 l6 57 -35 -76
c-42 -94 -63 -124 -130 -186 -67 -61 -148 -104 -267 -143 -91 -30 -124 -34
-78 -9 27 14 138 119 138 129 0 4 -26 -3 -59 -16 -51 -21 -183 -54 -214 -54
-6 0 9 13 34 28 106 68 204 217 246 377 15 58 18 108 18 295 0 205 -7 285 -32
389 l-6 24 34 -26 c19 -14 55 -34 80 -44z m-451 -151 c11 -75 20 -161 20 -189
0 -49 -2 -53 -27 -58 -69 -15 -65 -16 -58 13 13 51 15 78 22 247 7 193 13 191
43 -13z m2265 147 c-4 -5 -13 -9 -22 -9 -13 0 -13 3 -3 15 13 15 35 11 25 -6z
m-3325 -39 c0 -11 -2 -20 -4 -20 -2 0 -6 9 -9 20 -3 11 -1 20 4 20 5 0 9 -9 9
-20z m2820 -40 c8 -16 8 -20 -4 -20 -8 0 -22 -3 -31 -6 -14 -6 -14 -3 -4 20
15 31 25 33 39 6z m-1518 -177 c2 -67 0 -124 -4 -128 -4 -4 -27 -4 -52 -1 -36
6 -44 10 -39 23 4 10 2 14 -4 10 -5 -3 5 33 23 81 17 48 38 114 45 147 13 59
13 60 21 25 4 -19 8 -90 10 -157z m-1367 120 c1 -2 15 1 32 6 l30 9 5 -137 c3
-75 4 -138 2 -140 -2 -2 -17 26 -34 62 -34 76 -60 175 -59 227 l1 35 10 -30
c6 -16 12 -31 13 -32z m-452 -403 l15 -55 2 60 c1 33 4 53 7 45 3 -8 29 -67
58 -130 71 -155 100 -285 90 -404 -4 -47 -10 -86 -14 -86 -9 0 -43 112 -92
295 -31 120 -48 166 -49 135 0 -8 4 -31 10 -49 16 -58 4 -46 -36 34 -21 42
-48 120 -60 173 -12 54 -24 90 -27 82 -12 -32 -39 -355 -35 -410 2 -33 3 -59
2 -57 -1 1 -16 36 -34 77 -36 86 -57 175 -66 287 l-6 78 85 155 c46 85 93 170
103 187 l19 33 7 -198 c4 -119 12 -219 21 -252z m3261 418 c-6 -9 -34 -11 -34
-3 0 3 6 12 13 19 12 14 31 0 21 -16z m-2824 -131 c0 -7 14 -41 30 -75 17 -35
30 -66 30 -69 0 -3 -12 3 -27 12 -28 18 -28 18 -10 -2 16 -19 16 -20 -7 -31
-13 -6 -27 -8 -30 -5 -11 11 -7 195 4 188 6 -3 10 -12 10 -18z m2882 -9 c-15
-15 -16 -31 0 -22 6 4 8 3 4 -4 -3 -6 -2 -13 4 -17 6 -3 18 7 28 24 9 17 21
31 25 31 5 0 -1 -13 -12 -29 -12 -16 -21 -34 -21 -40 0 -15 -38 -33 -58 -28
-12 3 -11 5 5 6 32 2 39 22 15 41 -19 16 -19 18 -4 34 9 9 18 16 21 16 3 0 0
-5 -7 -12z m264 -74 c-3 -8 -2 -14 3 -14 12 0 21 -39 10 -46 -16 -9 -172 -15
-229 -9 -54 7 -55 7 -33 25 12 10 20 20 17 22 -5 5 108 19 159 20 15 1 27 6
27 14 0 7 8 17 17 23 21 11 38 -10 29 -35z m-1648 -49 c-2 -18 -7 -22 -17 -16
-11 7 -11 14 0 47 11 30 15 33 17 16 2 -12 2 -33 0 -47z m1329 29 c-3 -3 -12
-4 -19 -1 -8 3 -5 6 6 6 11 1 17 -2 13 -5z m-46 -13 c-11 -7 -6 -11 20 -14
l34 -4 -37 -1 c-36 -2 -47 6 -31 21 3 4 11 7 17 7 6 0 5 -4 -3 -9z m606 -38
l24 -31 -23 5 c-13 4 -26 10 -29 15 -10 15 -39 -3 -63 -39 -32 -46 -41 -27
-20 40 16 53 17 53 51 48 24 -4 44 -17 60 -38z m-2020 -79 c-3 -3 -12 -4 -19
-1 -8 3 -5 6 6 6 11 1 17 -2 13 -5z m-1010 -30 c-3 -3 -12 -4 -19 -1 -8 3 -5
6 6 6 11 1 17 -2 13 -5z m1847 -196 c5 -3 6 -37 1 -80 -4 -40 -13 -127 -19
-193 l-12 -120 -31 75 c-51 123 -52 131 -29 270 l20 126 31 -36 c16 -19 34
-38 39 -42z m-2737 -20 c-3 -7 -5 -2 -5 12 0 14 2 19 5 13 2 -7 2 -19 0 -25z
m1733 11 c0 -17 -20 -49 -30 -49 -11 0 -14 43 -3 53 10 11 33 8 33 -4z m40
-24 c0 -26 -14 -33 -25 -15 -9 14 1 40 15 40 5 0 10 -11 10 -25z m55 14 c10
-15 -1 -23 -20 -15 -9 3 -13 10 -10 16 8 13 22 13 30 -1z m-1081 -8 c9 -14 -4
-41 -20 -41 -8 0 -14 8 -14 18 0 29 22 43 34 23z m-854 -56 c0 -5 -5 -3 -10 5
-5 8 -10 20 -10 25 0 6 5 3 10 -5 5 -8 10 -19 10 -25z m895 15 c0 -7 -6 -15
-12 -17 -8 -3 -13 4 -13 17 0 13 5 20 13 18 6 -3 12 -11 12 -18z m35 10 c0 -5
-4 -10 -10 -10 -5 0 -10 5 -10 10 0 6 5 10 10 10 6 0 10 -4 10 -10z m-671 -99
c0 -14 -1 -14 -6 -1 -3 8 -10 24 -15 35 -9 20 -9 20 6 1 9 -11 16 -27 15 -35z
m-949 -42 c0 -5 -4 -9 -10 -9 -5 0 -10 7 -10 16 0 8 5 12 10 9 6 -3 10 -10 10
-16z m40 1 c0 -5 -4 -10 -10 -10 -5 0 -10 5 -10 10 0 6 5 10 10 10 6 0 10 -4
10 -10z m127 -6 c-3 -3 -12 -4 -19 -1 -8 3 -5 6 6 6 11 1 17 -2 13 -5z m548
-24 c3 -5 1 -10 -4 -10 -6 0 -11 5 -11 10 0 6 2 10 4 10 3 0 8 -4 11 -10z
m631 -272 c9 -23 26 -117 40 -208 13 -91 32 -196 43 -235 l19 -70 -30 35
c-139 161 -244 415 -272 661 l-5 46 95 -93 c67 -66 99 -105 110 -136z m-1086
192 c0 -5 18 -10 39 -10 46 0 73 -9 65 -21 -3 -5 18 -8 47 -7 39 0 54 -3 61
-16 6 -10 16 -15 27 -11 10 3 29 1 43 -4 15 -5 30 -5 41 0 12 7 19 4 27 -11 6
-11 15 -18 19 -16 12 8 81 -13 81 -24 0 -5 -11 -12 -25 -16 -24 -6 -31 -15
-19 -26 5 -6 64 20 64 28 0 2 -16 28 -35 58 -33 52 -34 54 -16 70 18 16 21 14
61 -59 23 -41 45 -73 49 -71 10 6 173 -35 189 -47 8 -6 34 -11 60 -12 26 0 47
-6 50 -13 2 -7 19 -12 38 -12 31 0 37 -4 50 -37 28 -65 24 -85 -19 -101 -35
-14 -46 -14 -114 2 -132 32 -145 36 -139 51 3 9 0 12 -9 8 -13 -4 -13 -9 1
-32 13 -22 28 -29 82 -39 84 -16 95 -26 47 -46 -47 -20 -54 -20 -72 2 -10 11
-10 8 1 -10 15 -25 15 -28 1 -28 -16 0 -49 30 -73 66 -7 10 -4 3 7 -18 22 -41
17 -56 -11 -31 -18 16 -18 16 -12 0 4 -12 1 -17 -12 -17 -12 1 -47 37 -90 93
l-72 93 -76 18 c-42 10 -76 21 -76 25 0 4 18 13 41 20 33 10 44 10 57 -1 9 -7
3 4 -12 25 -32 42 -34 43 -32 21 1 -11 -17 -23 -53 -37 l-53 -20 -97 23 c-53
13 -103 27 -111 31 -8 4 -37 11 -63 14 -32 4 -47 11 -44 18 3 9 -7 11 -33 9
-21 -2 -51 3 -68 12 -17 9 -45 16 -62 16 -16 0 -30 3 -30 8 0 4 49 26 108 49
104 40 172 54 172 33z m866 -109 c14 -45 23 -85 21 -87 -2 -2 -18 -1 -35 2
-29 6 -32 10 -32 44 0 57 14 168 18 145 2 -11 15 -58 28 -104z m2124 25 c0 -2
-8 -10 -17 -17 -16 -13 -17 -12 -4 4 13 16 21 21 21 13z m-280 -158 c-34 -79
-83 -173 -107 -210 -53 -79 -167 -190 -272 -267 -66 -48 -72 -50 -52 -22 53
74 159 333 201 489 8 33 18 46 38 53 15 5 77 31 137 58 61 26 112 47 113 45 2
-1 -24 -67 -58 -146z m168 121 c-2 -6 -7 -9 -10 -7 -10 4 -78 -64 -78 -78 0
-14 37 -30 59 -25 8 1 10 -2 5 -11 -6 -10 -4 -10 9 1 13 10 17 10 17 1 0 -9 4
-9 17 1 11 10 14 10 9 2 -16 -27 20 -12 58 25 l40 37 -37 -44 c-38 -46 -45
-65 -27 -76 18 -11 1 -23 -41 -30 -26 -4 -45 -3 -52 4 -6 6 -22 11 -35 11 -19
0 -56 13 -70 25 -9 8 56 115 87 142 37 33 55 41 49 22z m32 -45 c-25 -25 -54
-50 -65 -55 -11 -6 7 14 40 45 73 67 85 72 25 10z m-1732 -60 l40 -61 -42 12
c-41 12 -41 12 -46 68 -6 64 -5 64 48 -19z m1672 57 c-5 -11 -15 -23 -21 -27
-6 -3 -3 5 6 20 20 30 30 35 15 7z m225 -21 c-14 -15 -21 -17 -32 -9 -18 15
-17 18 6 12 10 -3 22 0 25 6 4 6 10 11 13 11 3 0 -2 -9 -12 -20z m-2752 -76
c93 -23 167 -60 167 -83 0 -4 -32 -20 -71 -36 -38 -15 -68 -30 -65 -33 3 -3
38 8 77 23 l71 29 19 -25 c55 -68 54 -64 13 -106 -36 -36 -42 -38 -106 -40
-37 0 -68 2 -68 7 0 14 -52 22 -64 9 -8 -9 -7 -10 6 -6 9 3 18 1 20 -4 2 -6
20 -11 41 -12 20 -1 37 -7 37 -13 0 -13 -225 -108 -254 -107 -40 1 -206 48
-206 58 1 15 245 109 269 102 13 -3 21 0 21 8 0 28 -55 29 -90 0 -15 -12 -194
-84 -264 -105 -43 -14 -33 -30 19 -30 17 0 62 -9 100 -20 38 -11 80 -20 92
-20 35 0 27 -18 -14 -35 -35 -15 -43 -14 -142 12 -59 15 -108 31 -109 35 -5
11 -74 10 -91 -1 -12 -8 -10 -11 10 -14 142 -28 239 -55 239 -66 0 -4 -16 -13
-36 -20 -32 -12 -47 -10 -143 15 -58 15 -107 32 -109 36 -6 14 -80 9 -96 -7
-8 -8 -19 -15 -25 -15 -14 0 -14 37 -1 45 6 4 4 12 -5 21 -19 20 -19 44 0 44
9 0 30 -7 46 -16 29 -15 89 -12 89 5 0 3 -30 12 -68 19 -70 14 -86 23 -96 59
-5 16 -2 23 14 28 11 3 20 10 20 15 0 10 223 100 249 100 10 0 30 9 44 21 15
11 44 23 64 26 21 3 45 11 53 18 11 10 209 96 238 104 2 1 49 -11 105 -25z
m971 -16 c-10 -16 -22 -7 -17 13 4 15 8 17 14 8 4 -7 5 -17 3 -21z m731 2 c-3
-5 -15 -10 -26 -10 -13 0 -18 -4 -13 -12 4 -6 3 -9 -2 -6 -5 3 -18 9 -29 13
-17 7 -13 10 20 15 22 4 44 8 48 9 5 0 5 -3 2 -9z m-72 -24 c17 -8 16 -11 -10
-32 -25 -21 -26 -25 -12 -34 18 -11 24 -106 8 -116 -5 -3 -9 -16 -9 -30 0 -13
-4 -24 -8 -24 -5 0 -14 -11 -20 -25 -7 -14 -20 -25 -31 -25 -19 0 -19 -2 -1
-82 19 -87 38 -138 51 -138 4 0 22 21 40 47 36 52 27 57 93 -51 22 -36 51 -70
64 -77 13 -8 30 -26 38 -41 8 -15 30 -39 50 -54 32 -25 35 -32 30 -62 -16
-100 -131 -173 -336 -214 -63 -12 -117 -24 -119 -25 -3 -2 0 -8 5 -13 7 -7 20
-6 39 4 15 8 56 18 90 21 55 6 65 4 100 -19 21 -15 49 -29 62 -32 21 -6 19 -9
-29 -43 -74 -51 -154 -96 -217 -121 l-55 -21 -103 103 -104 103 58 6 58 6 -65
1 c-161 5 -355 38 -457 79 -121 48 -202 153 -173 223 24 59 125 130 229 161
31 9 47 21 55 40 10 23 14 26 31 17 11 -6 22 -15 25 -19 3 -4 25 -3 50 1 25 5
107 9 183 10 115 0 137 2 137 15 0 21 13 19 28 -5 7 -11 16 -20 20 -20 4 0 21
39 36 86 24 74 26 90 15 110 -7 13 -21 24 -31 24 -11 0 -18 7 -18 18 0 10 -4
22 -9 27 -14 16 -24 105 -11 105 7 0 9 8 5 19 -4 13 1 27 14 40 26 26 26 38 1
53 -11 7 -20 15 -20 18 0 8 203 -5 223 -14z m-740 3 c46 -12 50 -38 4 -30 -4
1 -21 -6 -37 -14 -38 -20 -37 -20 -42 20 -5 40 7 43 75 24z m125 -8 c3 -9 -2
-11 -17 -6 -11 3 -21 2 -21 -3 0 -12 -100 -58 -118 -54 -8 2 -11 -1 -8 -6 3
-5 -1 -15 -9 -22 -12 -10 -15 -9 -15 7 0 20 36 43 67 43 8 0 31 14 50 31 36
31 63 35 71 10z m1652 10 c0 -5 -7 -12 -16 -15 -14 -5 -15 -4 -4 9 14 17 20
19 20 6z m142 -25 c14 -31 32 -38 62 -25 24 11 66 -2 66 -21 0 -5 8 -8 18 -7
22 1 92 -53 92 -71 0 -15 -54 -97 -70 -107 -5 -3 -25 10 -45 29 -19 19 -55 47
-80 62 -42 24 -46 29 -41 58 l5 31 -11 -27 c-7 -16 -15 -28 -19 -28 -4 0 -40
13 -81 29 -40 16 -90 33 -110 36 -21 4 -36 11 -33 16 9 13 97 23 115 12 12 -8
23 -5 45 13 39 31 72 31 87 0z m-333 -1 c13 -2 29 -9 35 -16 8 -9 3 -10 -23
-5 -18 3 -51 6 -73 6 -36 0 -39 2 -27 16 8 10 21 14 38 9 14 -3 37 -8 50 -10z
m381 -11 c0 -2 -7 -4 -15 -4 -8 0 -15 4 -15 10 0 5 7 7 15 4 8 -4 15 -8 15
-10z m-2212 -59 c-3 -3 -18 -3 -33 1 -27 7 -27 8 -10 21 16 11 21 11 34 -2 8
-8 12 -17 9 -20z m2519 -52 c2 -66 14 -173 20 -173 3 0 28 19 57 42 28 23 43
33 34 22 -10 -11 -18 -24 -18 -28 0 -5 -14 -26 -31 -47 -39 -49 -56 -40 -65
35 -6 43 -14 58 -51 95 -24 24 -41 46 -39 48 2 3 24 15 48 28 23 13 43 24 43
25 0 0 1 -21 2 -47z m-2559 26 c67 -16 79 -30 57 -63 -26 -40 -48 -48 -97 -37
-23 6 -44 8 -46 6 -12 -11 41 -74 98 -118 36 -27 67 -56 68 -64 2 -8 -11 -39
-29 -69 l-34 -55 -18 23 c-19 23 -19 23 -2 -6 11 -18 13 -32 7 -38 -13 -13
-92 107 -92 140 0 23 3 21 31 -21 17 -26 33 -47 36 -47 5 0 -3 14 -29 52 -17
25 -18 29 -3 52 10 15 14 33 9 50 -7 29 -48 66 -73 66 -15 0 -81 74 -81 90 0
10 100 49 128 49 13 1 44 -4 70 -10z m2082 -27 c0 -5 -6 -16 -13 -27 -10 -13
-21 -16 -41 -11 -23 6 -25 9 -16 26 11 20 70 30 70 12z m-2271 -61 c30 -30 45
-57 60 -109 25 -83 25 -86 6 -102 -8 -7 -24 -32 -34 -55 -24 -54 -59 -78 -116
-79 -49 -1 -81 18 -129 78 -60 74 -42 215 36 281 24 20 41 25 84 25 50 0 57
-3 93 -39z m282 7 c10 -18 9 -20 -5 -15 -9 4 -16 2 -16 -2 0 -5 6 -12 13 -14
6 -3 0 -6 -15 -6 -26 -1 -26 -1 -12 29 18 36 20 36 35 8z m2387 10 c19 -19 15
-24 -44 -53 -30 -15 -53 -29 -51 -32 3 -2 28 7 57 22 78 40 85 34 103 -77 2
-9 9 -24 17 -33 10 -12 11 -24 4 -43 -9 -25 -14 -27 -77 -30 l-67 -3 0 31 c0
27 3 30 33 31 l32 2 -34 6 c-27 5 -38 15 -56 50 l-22 45 34 48 c36 49 50 57
71 36z m-234 -34 l34 -17 -28 -24 -28 -23 -36 21 -36 21 23 19 c27 23 28 23
71 3z m-2698 -75 c-3 -17 -6 -53 -6 -80 0 -39 -4 -49 -21 -54 -21 -7 -239 45
-239 56 0 8 239 108 259 109 10 0 12 -8 7 -31z m378 9 c19 -27 20 -52 4 -66
-10 -7 -18 2 -35 39 -21 47 -21 49 -3 49 10 0 26 -10 34 -22z m2421 -87 l33
-29 -40 -4 c-31 -3 -47 1 -64 16 l-22 21 26 12 c15 6 29 12 31 12 2 1 18 -12
36 -28z m-2049 -68 c-3 9 -9 25 -12 35 -4 10 6 5 26 -14 29 -28 31 -35 23 -60
l-10 -29 -41 40 c-22 22 -52 48 -66 58 -14 10 -26 28 -26 40 0 18 9 13 56 -33
31 -30 54 -47 50 -37z m-982 36 c-1 -3 28 -14 67 -23 38 -10 72 -22 75 -27 7
-12 51 -11 74 1 16 9 22 6 34 -17 8 -16 23 -37 35 -47 43 -39 17 -44 -53 -10
-37 18 -67 18 -92 -1 -18 -14 -18 -14 11 -15 17 0 55 -7 85 -15 31 -8 58 -11
63 -6 5 5 43 7 85 4 71 -5 80 -3 115 21 21 15 43 24 48 21 5 -4 9 1 9 9 0 9
-4 16 -9 16 -5 0 -7 9 -4 20 7 26 10 26 46 -12 l30 -33 -27 37 c-29 41 -31 48
-13 48 17 -1 79 -88 72 -101 -5 -6 -12 -6 -23 3 -15 12 -16 11 -3 -5 10 -12
17 -15 24 -8 7 7 14 7 23 0 7 -6 15 -6 18 -1 6 9 115 -27 116 -39 0 -3 -16
-22 -35 -43 -20 -22 -38 -50 -41 -63 -10 -40 14 -102 59 -152 l42 -46 -5 -77
c-3 -43 -10 -82 -15 -87 -17 -17 -97 0 -102 20 -3 11 -9 19 -14 19 -5 0 -9 6
-9 14 0 18 -46 29 -68 17 -10 -6 -23 -6 -34 0 -10 6 -42 11 -71 12 -46 2 -52
5 -55 25 -2 12 -6 22 -10 22 -15 -2 -83 -98 -99 -140 -9 -25 -19 -47 -22 -50
-13 -11 -39 -140 -50 -245 -9 -88 -8 -118 4 -182 5 -27 1 -34 -25 -53 -36 -25
-50 -19 -50 21 0 16 -6 38 -12 49 -10 15 -10 27 -1 51 13 35 8 55 -10 41 -23
-16 -79 -8 -91 13 -6 11 -17 24 -23 28 -7 4 -13 16 -13 25 1 26 45 74 66 72
43 -5 53 0 59 32 4 18 16 43 28 56 11 12 18 22 14 22 -3 0 -2 14 3 30 6 21 5
28 -2 24 -6 -4 -8 1 -3 15 3 11 2 21 -3 21 -17 0 -21 -13 -11 -31 7 -13 6 -19
-1 -19 -6 0 -14 8 -17 18 -4 9 -13 22 -22 28 -13 10 -13 16 0 50 14 37 17 39
59 39 42 0 45 -2 42 -25 -2 -23 -2 -24 11 -6 11 14 21 17 43 12 26 -5 27 -5 9
6 -39 22 -39 38 -2 91 20 29 20 29 -2 58 l-21 29 35 48 c52 73 48 85 -22 76
-32 -3 -61 -8 -65 -11 -5 -2 -8 -27 -8 -55 0 -36 -4 -49 -12 -46 -7 3 -43 13
-80 23 -38 10 -68 21 -68 24 0 3 21 15 48 25 117 48 154 68 143 79 -7 7 -46
-6 -129 -42 l-120 -53 -107 31 c-103 29 -124 37 -114 44 18 14 229 97 246 97
12 0 61 -10 108 -22 47 -12 88 -18 92 -14 11 11 -12 22 -75 36 -31 7 -66 19
-77 26 -27 19 -58 17 -86 -4 -39 -29 -241 -112 -274 -112 -28 0 -65 15 -55 22
12 9 171 73 226 92 72 24 83 40 34 44 -19 2 -77 14 -128 28 -50 14 -98 22
-105 19 -6 -4 -1 3 12 14 13 12 34 24 48 27 27 7 243 -45 243 -58 0 -9 51 -11
74 -2 26 10 18 24 -14 24 -16 0 -64 9 -105 21 -41 11 -79 17 -85 14 -5 -3 -10
-1 -10 4 0 6 -7 11 -15 11 -22 0 -18 15 8 28 22 11 138 12 131 1z m2598 -55
c-4 -32 -6 -34 -21 -20 -10 9 -23 16 -29 16 -18 0 -24 18 -12 39 8 17 15 18
38 10 25 -8 27 -14 24 -45z m930 31 c-4 -23 4 -30 30 -26 4 0 4 -15 1 -34 -7
-42 3 -85 20 -85 6 1 25 12 42 25 l29 24 23 -21 23 -21 17 40 18 41 35 -36
c76 -80 90 -83 126 -32 l21 30 -1 -53 c-1 -28 2 -66 6 -83 7 -31 7 -32 -29
-27 -25 4 -33 2 -28 -6 8 -14 13 -15 -210 45 -88 24 -141 41 -117 38 36 -5 41
-3 36 10 -3 9 -7 16 -8 16 -1 0 -26 9 -56 20 -60 22 -105 26 -115 10 -4 -6 9
-17 27 -26 38 -17 28 -16 -95 12 -55 13 -73 20 -62 26 18 11 21 88 3 106 -17
17 -10 18 62 14 39 -3 58 -7 46 -11 -17 -7 -16 -9 8 -24 25 -17 26 -17 32 8 5
18 13 25 33 26 14 0 35 4 46 9 34 15 42 11 37 -15z m-1073 -62 c-5 -13 -9 -35
-9 -48 l0 -24 -42 24 c-43 24 -43 24 -40 74 l4 49 48 -25 c45 -23 48 -27 39
-50z m-2938 40 c55 -14 96 -30 92 -34 -5 -5 -62 -30 -127 -57 -98 -41 -124
-48 -149 -41 -16 5 -32 10 -34 13 -3 2 0 30 7 60 9 44 17 59 38 71 38 20 60
19 173 -12z m3194 4 c-5 -18 -1 -26 19 -35 23 -10 26 -9 26 9 0 11 5 17 10 14
10 -6 15 -65 5 -65 -9 0 -71 46 -73 55 -4 14 5 45 12 45 4 0 4 -10 1 -23z
m210 -7 c22 0 25 -4 25 -34 0 -19 3 -41 6 -50 5 -12 -2 -12 -43 4 -39 15 -48
22 -45 41 1 12 -5 33 -13 46 l-16 24 30 -15 c16 -9 41 -16 56 -16z m343 -33
c2 -26 -1 -39 -12 -43 -9 -3 -16 -15 -16 -26 0 -28 -18 -58 -35 -58 -8 0 -15
-5 -15 -10 0 -6 23 1 51 16 39 19 60 24 85 19 19 -3 34 -9 34 -13 0 -17 -110
-64 -144 -61 -27 3 -42 -3 -64 -24 -15 -15 -34 -27 -41 -27 -7 0 -24 -9 -38
-20 -14 -11 -33 -20 -41 -20 -13 0 -13 3 1 18 10 10 17 23 17 27 0 14 -87 91
-98 87 -6 -2 -13 1 -16 6 -3 5 12 12 33 16 22 3 52 17 68 30 29 24 29 24 53 5
14 -10 30 -19 35 -19 6 0 -4 9 -22 21 l-31 20 21 50 22 49 75 -2 75 -3 3 -38z
m-3485 -34 c59 -15 106 -32 104 -37 -2 -5 -56 -32 -121 -60 l-118 -50 -107 28
c-58 15 -109 31 -113 35 -6 5 216 107 242 111 3 0 53 -12 113 -27z m2495 1
c16 -5 22 -14 22 -35 0 -23 -4 -29 -22 -29 -37 0 -51 15 -44 44 7 28 9 29 44
20z m468 -26 c16 -12 48 -39 71 -62 48 -45 44 -56 -24 -56 -33 0 -46 5 -60 23
l-17 24 -41 -18 c-40 -18 -43 -18 -93 1 -29 11 -61 20 -72 20 -33 0 -23 18 22
41 106 54 168 62 214 27z m155 -58 c15 0 138 -97 132 -103 -3 -4 -20 -7 -37
-7 -17 0 -40 -7 -50 -15 -11 -8 -31 -15 -44 -15 -22 0 -24 3 -18 36 6 31 3 41
-28 79 l-36 43 38 -9 c20 -5 40 -9 43 -9z m586 4 c-3 -3 -12 -4 -19 -1 -8 3
-5 6 6 6 11 1 17 -2 13 -5z m-4187 -13 c0 -5 -7 -11 -15 -15 -15 -5 -20 5 -8
17 9 10 23 9 23 -2z m4238 -30 c63 -16 116 -31 118 -34 3 -3 -41 -28 -98 -57
l-102 -53 -61 12 c-33 7 -63 16 -66 19 -4 4 -9 25 -12 48 -5 41 -5 41 47 67
28 14 53 26 56 26 3 0 56 -12 118 -28z m-658 -41 c0 -5 -4 -10 -9 -10 -6 0
-13 5 -16 10 -3 6 1 10 9 10 9 0 16 -4 16 -10z m963 -36 c56 -14 103 -27 105
-29 2 -2 -8 -11 -21 -20 -22 -14 -31 -14 -66 -4 -50 15 -88 1 -131 -47 l-29
-34 -92 25 c-50 13 -93 26 -95 28 -7 6 190 106 209 107 10 0 64 -12 120 -26z
m-648 -4 c3 -5 17 -10 31 -10 21 0 24 -5 24 -35 0 -22 -6 -38 -15 -41 -8 -4
-15 -12 -15 -19 0 -8 -4 -16 -9 -19 -5 -4 -7 4 -3 16 3 13 11 27 18 31 19 11
14 59 -4 52 -8 -3 -21 3 -28 12 -9 12 -16 14 -21 7 -10 -13 -43 -26 -43 -16 0
7 36 28 52 31 4 0 10 -3 13 -9z m-183 -12 c-9 -9 -15 -9 -24 0 -9 9 -7 12 12
12 19 0 21 -3 12 -12z m-3162 -24 c126 -34 132 -38 90 -57 -19 -8 -78 -33
-131 -55 l-96 -41 -111 31 c-62 17 -112 33 -112 37 0 8 229 109 250 110 8 1
58 -11 110 -25z m3268 0 c12 -8 22 -21 22 -29 0 -8 11 -25 25 -38 15 -13 27
-34 28 -48 1 -13 11 -32 22 -41 20 -16 20 -16 -5 -26 -43 -16 -90 -22 -90 -12
0 6 3 10 8 10 4 0 18 10 32 21 24 20 23 20 -12 -1 l-38 -21 -22 45 c-21 45
-22 46 -2 68 l19 23 -23 -19 c-12 -11 -24 -17 -25 -15 -39 49 -57 78 -46 74 8
-3 25 1 39 9 33 19 42 19 68 0z m892 -11 c0 -5 -18 -16 -40 -25 -48 -20 -54
-8 -7 15 37 18 47 20 47 10z m-1025 -33 c25 -10 26 -10 8 -33 l-17 -24 -33 20
c-27 15 -31 22 -22 33 14 17 29 17 64 4z m393 0 c23 0 12 -18 -19 -29 -41 -14
-39 -15 -39 15 0 22 3 25 23 20 12 -3 28 -6 35 -6z m-3239 -36 c53 -14 100
-28 104 -31 12 -7 -231 -113 -257 -113 -12 0 -66 13 -121 29 l-100 29 80 36
c44 20 98 45 120 55 52 26 60 26 174 -5z m3981 9 c-1 -29 -40 -72 -40 -44 0 5
4 21 10 35 11 30 30 35 30 9z m-552 -22 c63 -16 116 -32 119 -34 5 -6 -65 -43
-124 -66 -30 -12 -34 -11 -63 17 -16 17 -47 36 -67 42 -57 18 -59 26 -17 49
22 11 39 20 39 20 0 0 51 -12 113 -28z m788 -87 c27 -11 34 -18 24 -24 -14 -8
-83 30 -107 59 -27 31 -12 42 16 12 16 -17 46 -38 67 -47z m-547 27 c10 -7
-13 -23 -87 -60 -100 -50 -134 -59 -161 -42 -12 8 17 28 144 99 24 14 85 15
104 3z m-4390 -41 c57 -16 106 -32 109 -34 3 -3 -15 -14 -39 -24 l-44 -19 -40
32 c-22 18 -55 40 -72 49 -32 16 -41 26 -25 26 4 0 54 -13 111 -30z m3931 18
c-14 -6 -29 -10 -35 -10 -13 2 -35 -46 -29 -64 14 -47 14 -47 28 -35 10 8 16
9 21 1 10 -16 25 -12 25 6 0 9 8 23 17 29 17 13 17 14 0 32 -25 28 -21 37 5
11 17 -17 19 -24 9 -37 -6 -9 -15 -26 -20 -38 -8 -17 -17 -20 -46 -18 -44 4
-41 1 -49 48 -4 23 -3 37 4 37 5 0 10 9 10 19 0 14 8 21 28 24 49 7 57 6 32
-5z m-94 -43 c3 -14 3 -40 0 -58 -7 -33 -7 -43 -3 -87 2 -23 -1 -25 -41 -25
-23 0 -42 -3 -42 -7 0 -5 -4 -8 -9 -8 -5 0 -11 19 -14 43 -3 30 0 46 12 56 13
11 13 12 1 9 -10 -3 -19 7 -27 36 -7 22 -10 42 -8 44 7 7 68 20 97 21 22 1 29
-5 34 -24z m568 -2 c-9 -36 -28 -58 -65 -73 -35 -15 -108 -5 -91 12 14 14 144
88 155 88 4 0 4 -12 1 -27z m146 -27 c-5 -15 -11 -47 -12 -71 0 -25 -6 -45
-12 -45 -32 1 -150 38 -154 48 -2 7 5 12 15 12 10 1 52 21 93 45 41 24 76 43
78 41 1 -2 -2 -15 -8 -30z m-905 14 c3 -6 -1 -7 -9 -4 -18 7 -21 14 -7 14 6 0
13 -4 16 -10z m-3371 -38 c55 -16 101 -33 103 -38 4 -13 -237 -114 -272 -114
-45 0 -52 10 -57 72 l-5 56 56 25 c31 14 61 26 66 26 6 1 55 -12 109 -27z
m3380 13 c9 9 16 12 16 6 0 -6 -8 -15 -19 -20 -14 -8 -23 -6 -37 12 l-19 22
21 -18 c20 -17 23 -17 38 -2z m-2577 -68 c-26 -7 -34 -5 -49 15 -24 32 -23 36
15 40 25 2 35 -2 48 -22 15 -24 15 -25 -14 -33z m3660 30 c10 -21 6 -25 -49
-55 l-60 -33 41 47 c22 26 41 51 41 55 0 17 17 9 27 -14z m-502 -43 c-24 -18
-41 -18 -48 0 -8 20 -1 23 35 18 29 -4 30 -6 13 -18z m193 -30 c121 -29 144
-41 116 -61 -10 -7 -28 -13 -40 -13 -21 0 -225 58 -233 66 -5 5 30 33 43 34 4
0 56 -11 114 -26z m-3748 -39 c0 -12 -96 -156 -103 -155 -47 9 -158 48 -156
55 4 12 217 113 242 114 9 1 17 -6 17 -14z m3170 -27 c0 -18 -9 -48 -20 -66
-11 -18 -20 -43 -20 -55 0 -12 -7 -33 -16 -45 l-15 -22 -41 21 c-22 11 -37 16
-33 10 3 -6 1 -11 -5 -11 -6 0 -9 8 -6 18 2 9 8 32 11 50 6 30 10 33 33 28 26
-5 26 -5 5 6 -17 8 -23 20 -23 45 0 39 20 51 88 52 41 1 42 0 42 -31z m-2804
8 c18 -14 18 -16 2 -32 -15 -16 -21 -16 -43 -4 -24 13 -24 14 -8 32 19 22 24
22 49 4z m2924 -14 c37 -37 47 -114 15 -120 -11 -3 -25 -12 -32 -21 -12 -15
-15 -14 -31 4 -9 12 -25 24 -34 27 -13 6 -16 15 -11 45 3 21 10 40 15 42 5 2
13 14 18 27 12 31 25 30 60 -4z m488 -26 c2 -3 -36 -25 -84 -49 l-89 -45 0 37
c0 20 -3 50 -7 67 l-7 31 91 -19 c51 -10 93 -20 96 -22z m194 -48 c71 -18 128
-36 128 -40 0 -13 -203 -118 -229 -118 -14 0 -75 15 -135 33 l-108 34 83 48
c46 26 93 54 104 61 26 17 13 19 157 -18z m-3663 -77 c24 -18 24 -20 8 -45
-10 -14 -22 -26 -28 -26 -9 0 -48 17 -58 26 -4 4 42 63 49 63 3 0 16 -8 29
-18z m2580 -42 c6 -18 11 -34 11 -35 0 -2 -14 -4 -30 -4 -24 0 -33 6 -41 26
-5 15 -7 29 -5 32 3 2 8 -7 12 -22 4 -19 13 -26 29 -26 19 0 22 4 18 21 -3 11
-15 25 -27 29 l-21 9 22 0 c15 1 24 -8 32 -30z m-463 -14 c-23 -55 -30 -65
-43 -57 -19 12 -3 57 25 75 15 9 28 17 30 17 1 0 -4 -16 -12 -35z m643 23 c44
-10 51 -15 51 -35 0 -27 -58 -92 -68 -77 -10 14 -72 57 -72 49 0 -3 -5 -3 -11
1 -6 3 -7 9 -2 13 4 3 14 18 20 34 14 31 14 31 82 15z m-3537 -68 c56 -17 104
-32 106 -35 3 -2 -15 -13 -39 -24 -24 -10 -84 -37 -132 -60 -49 -23 -96 -41
-104 -41 -23 0 -233 63 -233 70 0 12 245 119 273 119 15 1 73 -13 129 -29z
m2828 21 c0 -14 -18 -23 -31 -15 -8 4 -7 9 2 15 18 11 29 11 29 0z m-2459 -26
c29 -10 52 -27 68 -50 13 -20 22 -37 20 -39 -6 -6 -213 58 -219 67 -6 11 39
36 66 37 11 0 40 -7 65 -15z m2445 -69 c-7 -60 -17 -72 -45 -55 -13 9 -23 28
-27 56 -9 64 -3 74 42 60 l36 -11 -6 -50z m670 45 c29 -17 31 -24 30 -65 -1
-25 -5 -49 -9 -52 -13 -13 -7 -24 12 -24 12 0 21 -8 23 -22 4 -29 28 -35 35
-8 4 17 11 20 29 16 29 -8 58 28 44 54 -5 9 -6 27 -3 40 5 21 3 22 -20 16 -19
-4 -29 -1 -36 11 -8 14 -12 15 -25 4 -9 -7 -16 -20 -16 -27 0 -8 -8 -14 -17
-14 -11 0 -14 3 -7 8 6 4 16 17 23 30 13 24 45 30 58 10 4 -7 17 -13 28 -13
20 0 24 -17 26 -88 0 -27 -20 -47 -47 -47 -13 0 -24 -4 -24 -9 0 -5 -7 -12
-16 -15 -23 -9 -91 61 -75 77 6 6 11 15 11 19 0 4 -22 -15 -48 -42 -63 -65
-101 -68 -130 -10 -7 14 -10 17 -8 8 6 -19 -9 -25 -19 -9 -8 14 115 171 134
171 9 0 30 -9 47 -19z m-761 -39 l7 -33 -36 23 c-42 27 -43 32 -13 45 27 13
33 8 42 -35z m1317 33 c105 -22 148 -35 148 -43 0 -4 -14 -13 -30 -21 -28 -12
-40 -10 -115 13 -70 22 -83 30 -82 46 1 11 2 20 3 20 2 0 36 -7 76 -15z
m-3752 -50 c62 -19 114 -36 117 -39 6 -6 -246 -126 -266 -126 -22 -1 -241 64
-241 70 0 6 258 129 271 130 4 0 57 -16 119 -35z m270 -76 c-15 -51 -13 -62
10 -56 13 3 24 -3 36 -21 l17 -26 17 21 c9 12 25 22 35 25 18 3 18 4 -4 25
-15 14 -19 23 -11 28 6 4 9 14 6 22 -4 9 -1 13 6 10 7 -2 13 -13 13 -25 0 -11
4 -24 8 -28 15 -15 6 -45 -15 -54 -13 -6 -31 -15 -40 -22 -14 -10 -21 -9 -40
9 -13 11 -32 23 -43 25 -16 3 -20 11 -18 42 2 21 8 45 14 53 17 20 20 11 9
-28z m2640 11 c0 -22 -5 -30 -17 -29 -11 0 -13 3 -5 6 6 2 12 16 12 29 0 13 2
24 5 24 3 0 5 -13 5 -30z m845 21 c28 -6 29 -8 10 -18 -38 -21 -118 -63 -120
-63 -1 0 7 20 19 45 22 46 30 50 91 36z m-3593 -49 c-3 -26 -15 -35 -91 -71
-93 -44 -105 -47 -147 -31 -26 10 -21 14 102 74 71 35 132 62 135 60 3 -2 4
-16 1 -32z m2328 13 c0 -8 -4 -15 -10 -15 -5 0 -10 7 -10 15 0 8 5 15 10 15 6
0 10 -7 10 -15z m-2142 -40 c-6 -6 -58 8 -58 16 0 5 11 4 25 -1 21 -8 25 -6
26 8 1 15 2 15 6 -1 3 -10 3 -20 1 -22z"/>
<path d="M1238 3593 c6 -2 18 -2 25 0 6 3 1 5 -13 5 -14 0 -19 -2 -12 -5z"/>
<path d="M2527 3529 c7 -7 15 -10 18 -7 3 3 -2 9 -12 12 -14 6 -15 5 -6 -5z"/>
<path d="M2724 3518 c-3 -4 3 -8 13 -8 11 0 25 -6 33 -12 12 -11 12 -10 2 3
-6 9 -10 18 -7 20 2 3 -5 5 -16 5 -11 0 -23 -4 -25 -8z"/>
<path d="M2688 3513 c7 -3 16 -2 19 1 4 3 -2 6 -13 5 -11 0 -14 -3 -6 -6z"/>
<path d="M2877 3499 c7 -7 15 -10 18 -7 3 3 -2 9 -12 12 -14 6 -15 5 -6 -5z"/>
<path d="M4596 2771 c-3 -5 1 -11 9 -15 9 -3 15 0 15 9 0 16 -16 20 -24 6z"/>
<path d="M610 2060 c-8 -5 -10 -10 -5 -10 6 0 17 5 25 10 8 5 11 10 5 10 -5 0
-17 -5 -25 -10z"/>
<path d="M500 2020 c-9 -6 -10 -10 -3 -10 6 0 15 5 18 10 8 12 4 12 -15 0z"/>
<path d="M1246 1911 c-4 -5 3 -7 14 -4 23 6 26 13 6 13 -8 0 -17 -4 -20 -9z"/>
<path d="M1097 1860 c3 -11 9 -20 15 -20 5 0 4 9 -2 20 -6 11 -12 20 -14 20
-2 0 -2 -9 1 -20z"/>
<path d="M1081 1805 c43 -57 53 -66 43 -40 -7 18 17 20 35 3 7 -7 3 4 -9 24
-12 21 -26 36 -30 33 -5 -3 -25 4 -45 15 l-36 20 42 -55z"/>
<path d="M1248 1844 c-16 -8 -28 -17 -28 -19 0 -7 60 17 66 26 8 13 -7 10 -38
-7z"/>
<path d="M1130 1736 c0 -2 8 -10 18 -17 15 -13 16 -12 3 4 -13 16 -21 21 -21
13z"/>
<path d="M881 1767 c-41 -17 -70 -32 -65 -34 5 -2 48 12 94 31 47 20 76 35 65
34 -11 0 -53 -14 -94 -31z"/>
<path d="M555 1760 c-3 -5 -2 -10 4 -10 5 0 13 5 16 10 3 6 2 10 -4 10 -5 0
-13 -4 -16 -10z"/>
<path d="M590 1750 c0 -5 5 -10 11 -10 5 0 7 5 4 10 -3 6 -8 10 -11 10 -2 0
-4 -4 -4 -10z"/>
<path d="M625 1740 c-3 -5 -2 -10 4 -10 5 0 13 5 16 10 3 6 2 10 -4 10 -5 0
-13 -4 -16 -10z"/>
<path d="M665 1730 c-3 -5 1 -10 9 -10 9 0 16 5 16 10 0 6 -4 10 -9 10 -6 0
-13 -4 -16 -10z"/>
<path d="M755 1723 c-46 -10 -51 -14 -34 -23 18 -11 68 0 70 15 1 12 -9 14
-36 8z"/>
<path d="M440 1710 c0 -5 5 -10 10 -10 6 0 10 5 10 10 0 6 -4 10 -10 10 -5 0
-10 -4 -10 -10z"/>
<path d="M475 1700 c-3 -5 -2 -10 4 -10 5 0 13 5 16 10 3 6 2 10 -4 10 -5 0
-13 -4 -16 -10z"/>
<path d="M510 1690 c0 -9 8 -12 55 -14 11 -1 21 -8 22 -16 2 -11 -32 -28 -124
-63 l-126 -48 -91 25 c-99 28 -116 31 -116 17 0 -5 35 -17 77 -27 43 -10 84
-25 92 -32 16 -16 66 -9 90 12 20 16 242 106 264 106 16 0 35 19 20 21 -4 0
-26 3 -48 6 -22 2 -50 5 -62 5 -13 0 -23 4 -23 9 0 5 -7 9 -15 9 -8 0 -15 -4
-15 -10z"/>
<path d="M855 1693 c-38 -9 -40 -23 -3 -23 20 0 49 -5 64 -10 20 -8 30 -8 38
1 8 9 7 10 -7 6 -11 -4 -24 1 -34 13 -18 20 -23 21 -58 13z"/>
<path d="M976 1651 c-7 -10 40 -24 54 -16 4 3 10 0 12 -7 3 -7 12 -9 23 -5 26
10 12 19 -29 19 -20 0 -36 4 -36 9 0 12 -17 12 -24 0z"/>
<path d="M807 1613 c6 -15 29 -18 37 -4 3 5 -5 11 -18 13 -17 4 -23 1 -19 -9z"/>
<path d="M2366 1788 c-10 -6 -29 -20 -42 -30 -19 -17 -21 -24 -11 -39 9 -15 8
-21 -8 -34 -16 -12 -17 -16 -6 -24 9 -6 11 -18 7 -35 -5 -19 -2 -26 8 -26 15
0 29 -26 18 -33 -4 -2 -2 -2 5 -1 7 2 15 -1 18 -6 12 -20 57 -10 85 19 18 18
31 24 35 17 3 -6 3 1 0 15 -3 18 0 29 10 33 18 7 20 32 3 40 -10 5 -10 7 0 12
16 8 15 24 -3 43 -8 9 -23 26 -35 39 -22 24 -54 28 -84 10z m32 -15 c0 -5 2
-16 7 -27 18 -42 -33 -101 -56 -64 -15 23 -10 48 16 73 24 25 36 31 33 18z
m32 -178 c-13 -14 -30 -25 -37 -25 -7 0 1 13 19 29 39 35 52 32 18 -4z"/>
<path d="M2430 1555 c-8 -9 -8 -15 -2 -15 12 0 26 19 19 26 -2 2 -10 -2 -17
-11z"/>
<path d="M2556 1180 c28 -33 33 -50 23 -80 -9 -24 -8 -24 6 -6 26 34 17 63
-30 96 -19 13 -18 13 1 -10z"/>
<path d="M1740 1101 c0 -15 56 -58 89 -70 57 -19 69 -11 15 10 -29 11 -63 30
-78 44 -14 13 -26 21 -26 16z"/>
<path d="M1918 1013 c6 -2 18 -2 25 0 6 3 1 5 -13 5 -14 0 -19 -2 -12 -5z"/>
<path d="M2334 735 c-7 -18 3 -35 21 -35 21 0 28 19 15 35 -16 19 -29 19 -36
0z"/>
<path d="M3520 1660 c0 -5 7 -10 15 -10 8 0 15 5 15 10 0 6 -7 10 -15 10 -8 0
-15 -4 -15 -10z"/>
<path d="M3680 1580 c0 -14 26 -23 41 -15 8 6 7 10 -2 16 -19 12 -39 11 -39
-1z"/>
<path d="M3785 1440 c-3 -6 1 -13 10 -16 19 -8 30 0 20 15 -8 14 -22 14 -30 1z"/>
<path d="M1042 783 c-9 -23 -34 -29 -25 -7 4 11 2 15 -6 13 -7 -3 -12 -8 -11
-12 0 -4 -6 -15 -15 -23 -20 -21 -10 -36 21 -28 17 4 26 1 30 -10 5 -13 9 -14
20 -5 16 13 19 39 4 39 -6 0 -8 11 -4 25 7 28 -3 34 -14 8z"/>
<path d="M911 501 c-23 -15 -4 -28 36 -25 27 3 34 1 23 -6 -8 -5 -23 -7 -32
-4 -12 4 -15 0 -11 -15 6 -23 22 -23 40 -1 10 13 11 11 6 -7 -7 -30 -53 -33
-53 -4 0 27 -14 33 -36 16 -18 -14 -18 -14 4 -15 18 0 22 -4 17 -19 -7 -23 11
-37 29 -22 9 7 16 7 24 -1 19 -19 33 4 35 55 2 54 -4 63 -33 47 -16 -8 -25 -9
-29 -2 -4 7 -12 7 -20 3z"/>
<path d="M3350 1379 c0 -10 2 -19 4 -19 2 0 11 -3 20 -6 11 -4 16 0 16 14 0
11 -8 22 -20 25 -15 4 -20 0 -20 -14z"/>
<path d="M3190 1331 c0 -26 15 -41 41 -41 21 0 8 47 -16 58 -24 11 -25 10 -25
-17z"/>
<path d="M3684 1323 c2 -10 13 -19 24 -21 17 -3 22 2 22 17 0 16 -6 21 -24 21
-17 0 -24 -5 -22 -17z"/>
<path d="M3050 1271 c0 -11 5 -23 11 -27 16 -9 30 18 17 33 -15 19 -28 16 -28
-6z"/>
<path d="M3735 1001 c-3 -6 4 -15 16 -22 17 -9 23 -8 30 2 5 8 3 17 -4 21 -17
11 -35 10 -42 -1z"/>
<path d="M1250 762 c0 -16 22 -30 41 -25 15 4 17 8 8 19 -12 15 -49 19 -49 6z"/>
<path d="M1230 615 c-10 -13 -9 -15 9 -15 11 0 21 4 21 9 0 18 -18 21 -30 6z"/>
<path d="M4144 615 c-4 -11 -14 -25 -23 -31 -8 -6 -11 -18 -8 -27 3 -9 2 -19
-3 -22 -17 -10 -11 -25 9 -25 11 0 21 -9 24 -22 6 -21 7 -21 25 -5 10 9 26 17
35 17 18 0 23 25 8 34 -4 3 -6 17 -3 31 3 15 0 25 -8 25 -6 0 -20 10 -30 23
-18 22 -19 22 -26 2z"/>
<path d="M1166 441 c-16 -17 -16 -19 0 -25 16 -6 44 9 44 24 0 17 -29 18 -44
1z"/>
<path d="M400 2204 c0 -8 5 -12 10 -9 6 3 10 10 10 16 0 5 -4 9 -10 9 -5 0
-10 -7 -10 -16z"/>
<path d="M840 2205 c0 -8 5 -15 10 -15 6 0 10 7 10 15 0 8 -4 15 -10 15 -5 0
-10 -7 -10 -15z"/>
<path d="M880 2211 c0 -6 5 -13 10 -16 6 -3 10 1 10 9 0 9 -4 16 -10 16 -5 0
-10 -4 -10 -9z"/>
<path d="M920 2205 c0 -8 5 -15 10 -15 6 0 10 7 10 15 0 8 -4 15 -10 15 -5 0
-10 -7 -10 -15z"/>
<path d="M235 1980 c-3 -6 1 -7 9 -4 18 7 21 14 7 14 -6 0 -13 -4 -16 -10z"/>
<path d="M115 1935 c-25 -12 -26 -14 -5 -9 28 7 60 23 45 23 -5 0 -23 -6 -40
-14z"/>
<path d="M220 1913 c-25 -9 -40 -18 -34 -20 6 -2 31 5 55 16 53 24 41 26 -21
4z"/>
<path d="M0 1895 c0 -18 16 -18 55 0 l30 13 -42 1 c-32 1 -43 -3 -43 -14z"/>
<path d="M325 1885 c-16 -7 -23 -14 -15 -14 8 0 26 6 40 14 32 18 14 18 -25 0z"/>
<path d="M125 1883 c-36 -9 -41 -23 -8 -23 39 0 65 9 57 21 -5 9 -16 10 -49 2z"/>
<path d="M213 1853 c-23 -9 -13 -23 16 -23 37 0 62 10 55 21 -5 9 -50 11 -71
2z"/>
<path d="M0 1825 c0 -16 9 -19 34 -9 20 8 11 24 -15 24 -10 0 -19 -7 -19 -15z"/>
<path d="M88 1803 c-29 -7 -21 -23 11 -23 35 0 61 9 61 21 0 9 -41 10 -72 2z"/>
<path d="M400 1800 c-9 -6 -10 -10 -3 -10 6 0 15 5 18 10 8 12 4 12 -15 0z"/>
<path d="M165 1780 c-8 -13 5 -13 25 0 13 8 13 10 -2 10 -9 0 -20 -4 -23 -10z"/>
<path d="M215 1770 c3 -5 8 -10 11 -10 2 0 4 5 4 10 0 6 -5 10 -11 10 -5 0 -7
-4 -4 -10z"/>
<path d="M280 1750 c0 -5 4 -10 9 -10 6 0 13 5 16 10 3 6 -1 10 -9 10 -9 0
-16 -4 -16 -10z"/>
<path d="M750 729 c-13 -6 -27 -14 -30 -18 -7 -11 -255 -121 -272 -121 -8 0
-23 -6 -34 -14 -18 -14 -18 -15 8 -21 29 -7 61 0 80 18 16 15 260 127 277 127
7 0 22 5 33 11 17 9 18 13 7 20 -18 11 -37 10 -69 -2z"/>
<path d="M9 703 c-13 -16 -12 -17 4 -4 9 7 17 15 17 17 0 8 -8 3 -21 -13z"/>
<path d="M5170 590 c-8 -5 -25 -7 -37 -3 -18 4 -23 1 -23 -15 0 -39 73 -36
111 4 l22 24 -29 0 c-16 0 -36 -5 -44 -10z"/>
<path d="M146 544 c-26 -19 -70 -42 -97 -51 -31 -11 -49 -24 -49 -34 0 -14 7
-14 60 5 33 12 58 25 57 31 -6 17 26 34 65 35 40 0 68 8 68 19 0 7 -47 33 -53
30 -1 -1 -24 -16 -51 -35z"/>
<path d="M288 523 c-26 -7 -22 -22 8 -29 28 -7 74 9 74 26 0 10 -49 12 -82 3z"/>
<path d="M5150 475 c-16 -19 -223 -135 -241 -135 -16 0 -39 -19 -39 -32 0 -4
16 -8 35 -8 35 0 264 -57 278 -70 4 -4 -4 -15 -20 -25 -27 -18 -30 -18 -158
15 -71 19 -143 41 -159 48 -20 10 -37 12 -54 6 -37 -13 -40 -34 -5 -34 30 0
281 -65 291 -75 8 -8 -16 -23 -48 -32 -27 -7 -271 52 -281 69 -3 5 -33 11 -65
12 -32 2 -51 1 -42 -1 17 -4 17 -5 0 -22 -9 -10 -36 -28 -59 -41 -41 -22 -53
-42 -35 -54 5 -3 39 14 77 36 66 40 70 41 114 31 104 -24 231 -58 231 -63 0
-3 -37 -26 -83 -52 l-82 -47 41 -1 c31 0 60 11 114 42 l73 42 100 -26 c56 -15
103 -25 105 -23 15 15 -17 35 -82 50 -42 10 -76 21 -76 25 0 3 15 14 34 23 26
12 42 14 68 7 44 -13 58 -12 58 3 0 7 -12 18 -27 23 l-28 11 28 13 c21 10 27
20 25 39 -3 22 -12 27 -125 56 -114 29 -143 40 -132 48 2 2 50 30 107 62 72
40 110 56 127 53 19 -4 25 -1 25 12 0 31 -67 42 -90 15z"/>
<path d="M139 452 c-13 -11 -50 -31 -81 -45 -32 -14 -58 -31 -58 -38 0 -14 14
-10 105 29 39 17 85 36 102 42 18 7 30 16 27 21 -9 16 -71 10 -95 -9z"/>
<path d="M3280 47 c0 -23 16 -47 32 -47 17 0 7 50 -12 60 -17 9 -20 8 -20 -13z"/>
<path d="M1350 10 c0 -5 9 -10 21 -10 11 0 17 4 14 10 -8 13 -35 13 -35 0z"/>
<path d="M1308 3 c7 -3 16 -2 19 1 4 3 -2 6 -13 5 -11 0 -14 -3 -6 -6z"/>
<path d="M4563 3 c9 -2 23 -2 30 0 6 3 -1 5 -18 5 -16 0 -22 -2 -12 -5z"/>
</g>
</svg>
